<?xml version="1.0" encoding="UTF-8"?>
<svg id="Layer_2" data-name="Layer 2" xmlns="http://www.w3.org/2000/svg" viewBox="0 0 131.73 30">
  <defs>
    <style>
      .cls-1 {
        fill: #fff;
      }
    </style>
  </defs>
  <g id="Layer_1-2" data-name="Layer 1">
    <g>
      <path class="cls-1" d="m22.4,17.34c-.27-.53-.59-1.01-.97-1.45-.38-.44-.8-.79-1.28-1.04.46-.29.88-.65,1.26-1.07.38-.43.7-.91.97-1.44.27-.53.48-1.07.63-1.64.15-.57.22-1.12.22-1.66,0-1.2-.23-2.33-.69-3.38-.46-1.06-1.08-1.98-1.87-2.77-.79-.79-1.71-1.41-2.77-1.88-1.06-.46-2.18-.69-3.38-.69H0v29.05h14.52c1.2,0,2.33-.23,3.38-.69,1.05-.46,1.97-1.08,2.77-1.87.79-.79,1.41-1.71,1.87-2.77.46-1.06.69-2.18.69-3.38,0-.54-.07-1.1-.21-1.67-.14-.57-.35-1.12-.62-1.65Zm-5.2,4.46c-.15.35-.35.66-.62.92-.26.26-.57.47-.92.62s-.73.22-1.13.22H5.81v-5.79h8.71c.41,0,.78.08,1.13.23s.66.35.92.62c.26.26.47.57.62.92.15.35.22.73.22,1.13s-.07.78-.22,1.13Zm0-11.61c-.15.35-.35.67-.62.93-.26.26-.57.47-.92.62s-.73.22-1.13.22H5.81v-5.81h8.71c.41,0,.78.07,1.13.22.35.15.66.35.92.62.26.26.47.57.62.92.15.35.22.73.22,1.13s-.07.79-.22,1.15Z"/>
      <path class="cls-1" d="m50.45,7.43c-.6-1.41-1.44-2.64-2.49-3.7-1.06-1.05-2.29-1.89-3.7-2.49-1.41-.61-2.92-.91-4.53-.91s-3.12.3-4.53.91c-1.41.6-2.64,1.44-3.69,2.49-1.05,1.06-1.88,2.29-2.48,3.7-.6,1.41-.91,2.92-.91,4.53v17.42h5.79v-5.82h11.62v5.82h5.81V11.95c0-1.6-.3-3.12-.91-4.53Zm-4.9,10.34h-11.62v-5.81c0-.8.15-1.55.45-2.26.3-.71.72-1.33,1.25-1.85.53-.53,1.14-.94,1.85-1.24.71-.3,1.46-.46,2.26-.46s1.55.15,2.26.46c.71.3,1.33.72,1.85,1.24s.94,1.14,1.24,1.85c.3.71.46,1.46.46,2.26v5.81Z"/>
      <path class="cls-1" d="m74.73,23.23c-.62.31-1.27.55-1.96.73-.69.18-1.4.26-2.12.26-1.27,0-2.46-.24-3.58-.73-1.12-.48-2.09-1.15-2.93-1.99-.84-.83-1.5-1.82-1.99-2.94-.48-1.12-.73-2.32-.73-3.6s.24-2.46.73-3.58c.49-1.11,1.15-2.08,1.99-2.91.84-.83,1.81-1.49,2.93-1.98,1.12-.48,2.3-.73,3.58-.73s2.48.25,3.62.76c1.15.5,2.16,1.2,3.04,2.1l3.04-5.07c-1.35-1.15-2.86-2.03-4.52-2.65-1.66-.61-3.39-.92-5.19-.92-1.38,0-2.71.18-3.98.54-1.28.35-2.47.86-3.57,1.51-1.11.65-2.12,1.43-3.04,2.34-.92.91-1.7,1.92-2.35,3.04-.65,1.12-1.15,2.3-1.51,3.58-.35,1.27-.53,2.59-.53,3.97s.18,2.71.53,3.99c.36,1.28.86,2.48,1.51,3.6.65,1.11,1.43,2.12,2.35,3.04.92.91,1.93,1.7,3.04,2.35,1.11.65,2.3,1.16,3.57,1.52,1.28.36,2.6.54,3.98.54,1.79,0,3.52-.31,5.19-.92,1.66-.61,3.17-1.5,4.52-2.65v-11.46h-5.61v8.26Z"/>
      <path class="cls-1" d="m106.5,17.27c-.45-1.06-1.07-1.99-1.86-2.77-.79-.79-1.71-1.41-2.77-1.87-1.06-.45-2.19-.68-3.39-.68h-5.82c-.41,0-.78-.07-1.13-.22s-.66-.35-.92-.62c-.26-.26-.47-.58-.62-.93-.15-.36-.22-.74-.22-1.15s.07-.78.22-1.13c.15-.35.35-.66.62-.92.26-.26.57-.47.92-.62.35-.15.73-.22,1.13-.22h5.74l-5.81-5.81c-1.17,0-2.28.24-3.31.69-1.05.46-1.97,1.08-2.76,1.88-.79.79-1.41,1.71-1.88,2.77-.46,1.05-.69,2.18-.69,3.38s.23,2.34.69,3.4c.46,1.06,1.08,1.98,1.88,2.77.79.79,1.71,1.41,2.76,1.88,1.06.46,2.18.69,3.38.69h5.82c.4,0,.78.08,1.13.23.35.15.65.35.92.62.26.26.47.57.62.92.15.35.22.73.22,1.13s-.07.78-.22,1.13c-.15.35-.35.66-.62.92-.27.26-.57.47-.92.62-.35.15-.73.22-1.13.22h-12.91v5.82h12.91c1.2,0,2.33-.23,3.39-.69s1.98-1.08,2.77-1.87c.79-.79,1.41-1.71,1.86-2.77.45-1.06.68-2.18.68-3.38s-.23-2.33-.68-3.39ZM97.8.33l5.81,5.81h2.37V.33h-8.19Z"/>
      <path class="cls-1" d="m131.73,6.14V.33h-19.91v29.05h19.91v-5.82h-14.09v-5.79h9.54v-5.81h-9.54v-5.81h14.09Z"/>
    </g>
  </g>
</svg>