<svg xmlns="http://www.w3.org/2000/svg" xmlns:xlink="http://www.w3.org/1999/xlink" id="Layer_1" x="0px" y="0px" viewBox="0 0 1000 310.8" style="enable-background:new 0 0 1000 310.8;" xml:space="preserve">
<style type="text/css">
	.st0{fill:#878787;}
</style>
<g>
	<path class="st0" d="M955.4,298.9l-5.4-0.9c-148.1-23.2-299.3-34.9-449.2-34.9s-301.1,11.8-449.2,34.9l-5.4,0.9L7.5,52.6l5.4-0.9   c160.9-25.2,325-37.9,487.8-37.9s326.9,12.8,487.8,37.9l5.4,0.9L955.4,298.9z M500.7,252.2c148.7,0,298.5,11.5,445.5,34.2   l35.1-224.6C822.8,37.3,661.1,24.8,500.7,24.8S178.6,37.3,20.1,61.8l35.1,224.6C202.2,263.7,352,252.2,500.7,252.2z"></path>
</g>
<g>
	<path class="st0" d="M178.6,116.8l3.5,33.7l34.7-3.6l1.2,11.4l-34.7,3.6l3.7,35.3l42.8-4.4l1.2,11.4l-57,5.9l-10.7-103l55.8-5.8   l-0.5,11.5L178.6,116.8z"></path>
	<path class="st0" d="M317.8,105.8l5.8,91.2l-14.3,0.9l-5.8-91.2l-29.4,1.9l-0.8-12.2l73.8-4.7l-0.7,12.3L317.8,105.8z"></path>
	<path class="st0" d="M422.2,144.1l0.9,48.5l-14.3,0.3l-2-103.5l14.3-0.3l0.8,43.3l43.6-0.8l-0.8-43.3l14.3-0.3l2,103.5l-14.3,0.3   l-0.9-48.5L422.2,144.1z"></path>
	<path class="st0" d="M603.2,193.4l-39.5-89.2c0.5,8.6,1.3,21.2,0.8,40.5l-1.4,47.5l-13.4-0.4l3-103.5l18.6,0.5l39.9,89.3   c-0.2-2.4-1.4-19-1-31.6L612,90l13.4,0.4l-3,103.5L603.2,193.4z"></path>
	<path class="st0" d="M691.1,197.9l7-103.4l14.4,1l-7,103.4L691.1,197.9z"></path>
	<path class="st0" d="M848.7,116.4l-8.7,8.3c-5.9-5.9-11.9-8.9-19.1-9.7c-15.6-1.6-29.7,7.5-32.9,38.6c-3.1,29.8,8.1,42.7,24.1,44.4   c9.7,1,16.5-2.7,22.7-6.4l6.2,9.9c-6.1,5.3-16.7,9.9-30.7,8.5c-25-2.6-41.1-23.2-37.5-57.9c3.6-34.8,25-51.2,48.3-48.8   C834.2,104.7,841.2,109,848.7,116.4z"></path>
</g>
</svg>